<svg xmlns="http://www.w3.org/2000/svg" viewBox="0 0 300 300" width="300" height="300" shape-rendering="geometricPrecision"><path fill="#1a1a1a" fill-rule="evenodd" d="M 114 0 L 120 0 L 120 0 L 120 12 L 120 12 L 114 12 A 6 6 0 0 1 108 6 L 108 6 A 6 6 0 0 1 114 0 Z M 120 0 L 126 0 A 6 6 0 0 1 132 6 L 132 6 A 6 6 0 0 1 126 12 L 120 12 L 120 12 L 120 0 L 120 0 Z M 150 0 L 156 0 L 156 0 L 156 12 L 156 12 L 150 12 A 6 6 0 0 1 144 6 L 144 6 A 6 6 0 0 1 150 0 Z M 156 0 L 168 0 L 168 0 L 168 12 L 168 12 L 156 12 L 156 12 L 156 0 L 156 0 Z M 168 0 L 180 0 L 180 0 L 180 12 L 180 12 L 168 12 L 168 12 L 168 0 L 168 0 Z M 180 0 L 186 0 A 6 6 0 0 1 192 6 L 192 12 L 192 12 L 180 12 L 180 12 L 180 0 L 180 0 Z M 102 12 L 102 12 A 6 6 0 0 1 108 18 L 108 24 L 108 24 L 96 24 L 96 24 L 96 18 A 6 6 0 0 1 102 12 Z M 138 12 L 138 12 A 6 6 0 0 1 144 18 L 144 18 A 6 6 0 0 1 138 24 L 138 24 A 6 6 0 0 1 132 18 L 132 18 A 6 6 0 0 1 138 12 Z M 156 12 L 168 12 L 168 12 L 168 24 L 168 24 L 162 24 A 6 6 0 0 1 156 18 L 156 12 L 156 12 Z M 168 12 L 180 12 L 180 12 L 180 24 L 180 24 L 168 24 L 168 24 L 168 12 L 168 12 Z M 180 12 L 192 12 L 192 12 L 192 18 A 6 6 0 0 1 186 24 L 180 24 L 180 24 L 180 12 L 180 12 Z M 96 24 L 108 24 L 108 24 L 108 36 L 108 36 L 102 36 A 6 6 0 0 1 96 30 L 96 24 L 96 24 Z M 108 24 L 120 24 L 120 24 L 120 36 L 120 36 L 108 36 L 108 36 L 108 24 L 108 24 Z M 120 24 L 126 24 A 6 6 0 0 1 132 30 L 132 36 L 132 36 L 120 36 L 120 36 L 120 24 L 120 24 Z M 150 24 L 150 24 A 6 6 0 0 1 156 30 L 156 36 L 156 36 L 144 36 L 144 36 L 144 30 A 6 6 0 0 1 150 24 Z M 198 24 L 198 24 A 6 6 0 0 1 204 30 L 204 30 A 6 6 0 0 1 198 36 L 198 36 A 6 6 0 0 1 192 30 L 192 30 A 6 6 0 0 1 198 24 Z M 108 36 L 120 36 L 120 36 L 120 48 L 120 48 L 114 48 A 6 6 0 0 1 108 42 L 108 36 L 108 36 Z M 120 36 L 132 36 L 132 36 L 132 48 L 132 48 L 120 48 L 120 48 L 120 36 L 120 36 Z M 132 36 L 144 36 L 144 36 L 144 48 L 144 48 L 132 48 L 132 48 L 132 36 L 132 36 Z M 144 36 L 156 36 L 156 36 L 156 42 A 6 6 0 0 1 150 48 L 144 48 L 144 48 L 144 36 L 144 36 Z M 174 36 L 174 36 A 6 6 0 0 1 180 42 L 180 48 L 180 48 L 168 48 L 168 48 L 168 42 A 6 6 0 0 1 174 36 Z M 102 48 L 102 48 A 6 6 0 0 1 108 54 L 108 60 L 108 60 L 96 60 L 96 60 L 96 54 A 6 6 0 0 1 102 48 Z M 132 48 L 144 48 L 144 48 L 144 54 A 6 6 0 0 1 138 60 L 138 60 A 6 6 0 0 1 132 54 L 132 48 L 132 48 Z M 162 48 L 168 48 L 168 48 L 168 60 L 168 60 L 156 60 L 156 60 L 156 54 A 6 6 0 0 1 162 48 Z M 168 48 L 180 48 L 180 48 L 180 60 L 180 60 L 168 60 L 168 60 L 168 48 L 168 48 Z M 180 48 L 192 48 L 192 48 L 192 60 L 192 60 L 180 60 L 180 60 L 180 48 L 180 48 Z M 192 48 L 198 48 A 6 6 0 0 1 204 54 L 204 54 A 6 6 0 0 1 198 60 L 192 60 L 192 60 L 192 48 L 192 48 Z M 96 60 L 108 60 L 108 60 L 108 72 L 108 72 L 96 72 L 96 72 L 96 60 L 96 60 Z M 108 60 L 114 60 A 6 6 0 0 1 120 66 L 120 66 A 6 6 0 0 1 114 72 L 108 72 L 108 72 L 108 60 L 108 60 Z M 150 60 L 156 60 L 156 60 L 156 72 L 156 72 L 144 72 L 144 72 L 144 66 A 6 6 0 0 1 150 60 Z M 156 60 L 168 60 L 168 60 L 168 66 A 6 6 0 0 1 162 72 L 156 72 L 156 72 L 156 60 L 156 60 Z M 180 60 L 192 60 L 192 60 L 192 66 A 6 6 0 0 1 186 72 L 186 72 A 6 6 0 0 1 180 66 L 180 60 L 180 60 Z M 96 72 L 108 72 L 108 72 L 108 84 L 108 84 L 96 84 L 96 84 L 96 72 L 96 72 Z M 126 72 L 126 72 A 6 6 0 0 1 132 78 L 132 78 A 6 6 0 0 1 126 84 L 126 84 A 6 6 0 0 1 120 78 L 120 78 A 6 6 0 0 1 126 72 Z M 144 72 L 156 72 L 156 72 L 156 84 L 156 84 L 144 84 L 144 84 L 144 72 L 144 72 Z M 174 72 L 174 72 A 6 6 0 0 1 180 78 L 180 84 L 180 84 L 168 84 L 168 84 L 168 78 A 6 6 0 0 1 174 72 Z M 198 72 L 198 72 A 6 6 0 0 1 204 78 L 204 84 L 204 84 L 192 84 L 192 84 L 192 78 A 6 6 0 0 1 198 72 Z M 96 84 L 108 84 L 108 84 L 108 96 L 108 96 L 102 96 A 6 6 0 0 1 96 90 L 96 84 L 96 84 Z M 108 84 L 114 84 A 6 6 0 0 1 120 90 L 120 90 A 6 6 0 0 1 114 96 L 108 96 L 108 96 L 108 84 L 108 84 Z M 138 84 L 144 84 L 144 84 L 144 96 L 144 96 L 132 96 L 132 96 L 132 90 A 6 6 0 0 1 138 84 Z M 144 84 L 156 84 L 156 84 L 156 96 L 156 96 L 144 96 L 144 96 L 144 84 L 144 84 Z M 168 84 L 180 84 L 180 84 L 180 90 A 6 6 0 0 1 174 96 L 174 96 A 6 6 0 0 1 168 90 L 168 84 L 168 84 Z M 192 84 L 204 84 L 204 84 L 204 90 A 6 6 0 0 1 198 96 L 198 96 A 6 6 0 0 1 192 90 L 192 84 L 192 84 Z M 6 96 L 12 96 L 12 96 L 12 108 L 12 108 L 6 108 A 6 6 0 0 1 0 102 L 0 102 A 6 6 0 0 1 6 96 Z M 12 96 L 18 96 A 6 6 0 0 1 24 102 L 24 108 L 24 108 L 12 108 L 12 108 L 12 96 L 12 96 Z M 42 96 L 42 96 A 6 6 0 0 1 48 102 L 48 102 A 6 6 0 0 1 42 108 L 42 108 A 6 6 0 0 1 36 102 L 36 102 A 6 6 0 0 1 42 96 Z M 78 96 L 84 96 L 84 96 L 84 108 L 84 108 L 78 108 A 6 6 0 0 1 72 102 L 72 102 A 6 6 0 0 1 78 96 Z M 84 96 L 90 96 A 6 6 0 0 1 96 102 L 96 108 L 96 108 L 84 108 L 84 108 L 84 96 L 84 96 Z M 126 96 L 132 96 L 132 96 L 132 108 L 132 108 L 120 108 L 120 108 L 120 102 A 6 6 0 0 1 126 96 Z M 132 96 L 144 96 L 144 96 L 144 108 L 144 108 L 132 108 L 132 108 L 132 96 L 132 96 Z M 144 96 L 156 96 L 156 96 L 156 108 L 156 108 L 144 108 L 144 108 L 144 96 L 144 96 Z M 156 96 L 162 96 A 6 6 0 0 1 168 102 L 168 102 A 6 6 0 0 1 162 108 L 156 108 L 156 108 L 156 96 L 156 96 Z M 222 96 L 228 96 L 228 96 L 228 108 L 228 108 L 216 108 L 216 108 L 216 102 A 6 6 0 0 1 222 96 Z M 228 96 L 240 96 L 240 96 L 240 108 L 240 108 L 228 108 L 228 108 L 228 96 L 228 96 Z M 240 96 L 246 96 A 6 6 0 0 1 252 102 L 252 102 A 6 6 0 0 1 246 108 L 240 108 L 240 108 L 240 96 L 240 96 Z M 270 96 L 276 96 L 276 96 L 276 108 L 276 108 L 270 108 A 6 6 0 0 1 264 102 L 264 102 A 6 6 0 0 1 270 96 Z M 276 96 L 282 96 A 6 6 0 0 1 288 102 L 288 102 A 6 6 0 0 1 282 108 L 276 108 L 276 108 L 276 96 L 276 96 Z M 12 108 L 24 108 L 24 108 L 24 120 L 24 120 L 12 120 L 12 120 L 12 108 L 12 108 Z M 24 108 L 30 108 A 6 6 0 0 1 36 114 L 36 120 L 36 120 L 24 120 L 24 120 L 24 108 L 24 108 Z M 66 108 L 66 108 A 6 6 0 0 1 72 114 L 72 114 A 6 6 0 0 1 66 120 L 66 120 A 6 6 0 0 1 60 114 L 60 114 A 6 6 0 0 1 66 108 Z M 84 108 L 96 108 L 96 108 L 96 120 L 96 120 L 84 120 L 84 120 L 84 108 L 84 108 Z M 96 108 L 102 108 A 6 6 0 0 1 108 114 L 108 120 L 108 120 L 96 120 L 96 120 L 96 108 L 96 108 Z M 120 108 L 132 108 L 132 108 L 132 120 L 132 120 L 120 120 L 120 120 L 120 108 L 120 108 Z M 144 108 L 156 108 L 156 108 L 156 114 A 6 6 0 0 1 150 120 L 150 120 A 6 6 0 0 1 144 114 L 144 108 L 144 108 Z M 198 108 L 198 108 A 6 6 0 0 1 204 114 L 204 114 A 6 6 0 0 1 198 120 L 198 120 A 6 6 0 0 1 192 114 L 192 114 A 6 6 0 0 1 198 108 Z M 216 108 L 228 108 L 228 108 L 228 120 L 228 120 L 216 120 L 216 120 L 216 108 L 216 108 Z M 294 108 L 294 108 A 6 6 0 0 1 300 114 L 300 120 L 300 120 L 288 120 L 288 120 L 288 114 A 6 6 0 0 1 294 108 Z M 12 120 L 24 120 L 24 120 L 24 132 L 24 132 L 12 132 L 12 132 L 12 120 L 12 120 Z M 24 120 L 36 120 L 36 120 L 36 132 L 36 132 L 24 132 L 24 132 L 24 120 L 24 120 Z M 54 120 L 54 120 A 6 6 0 0 1 60 126 L 60 126 A 6 6 0 0 1 54 132 L 54 132 A 6 6 0 0 1 48 126 L 48 126 A 6 6 0 0 1 54 120 Z M 78 120 L 84 120 L 84 120 L 84 132 L 84 132 L 78 132 A 6 6 0 0 1 72 126 L 72 126 A 6 6 0 0 1 78 120 Z M 84 120 L 96 120 L 96 120 L 96 132 L 96 132 L 84 132 L 84 132 L 84 120 L 84 120 Z M 96 120 L 108 120 L 108 120 L 108 132 L 108 132 L 96 132 L 96 132 L 96 120 L 96 120 Z M 108 120 L 120 120 L 120 120 L 120 132 L 120 132 L 108 132 L 108 132 L 108 120 L 108 120 Z M 120 120 L 132 120 L 132 120 L 132 126 A 6 6 0 0 1 126 132 L 120 132 L 120 132 L 120 120 L 120 120 Z M 216 120 L 228 120 L 228 120 L 228 132 L 228 132 L 216 132 L 216 132 L 216 120 L 216 120 Z M 228 120 L 240 120 L 240 120 L 240 132 L 240 132 L 228 132 L 228 132 L 228 120 L 228 120 Z M 240 120 L 246 120 A 6 6 0 0 1 252 126 L 252 132 L 252 132 L 240 132 L 240 132 L 240 120 L 240 120 Z M 282 120 L 288 120 L 288 120 L 288 132 L 288 132 L 282 132 A 6 6 0 0 1 276 126 L 276 126 A 6 6 0 0 1 282 120 Z M 288 120 L 300 120 L 300 120 L 300 126 A 6 6 0 0 1 294 132 L 288 132 L 288 132 L 288 120 L 288 120 Z M 12 132 L 24 132 L 24 132 L 24 144 L 24 144 L 12 144 L 12 144 L 12 132 L 12 132 Z M 24 132 L 36 132 L 36 132 L 36 144 L 36 144 L 24 144 L 24 144 L 24 132 L 24 132 Z M 36 132 L 42 132 A 6 6 0 0 1 48 138 L 48 138 A 6 6 0 0 1 42 144 L 36 144 L 36 144 L 36 132 L 36 132 Z M 66 132 L 66 132 A 6 6 0 0 1 72 138 L 72 138 A 6 6 0 0 1 66 144 L 66 144 A 6 6 0 0 1 60 138 L 60 138 A 6 6 0 0 1 66 132 Z M 84 132 L 96 132 L 96 132 L 96 144 L 96 144 L 84 144 L 84 144 L 84 132 L 84 132 Z M 96 132 L 108 132 L 108 132 L 108 138 A 6 6 0 0 1 102 144 L 96 144 L 96 144 L 96 132 L 96 132 Z M 150 132 L 156 132 L 156 132 L 156 144 L 156 144 L 144 144 L 144 144 L 144 138 A 6 6 0 0 1 150 132 Z M 156 132 L 168 132 L 168 132 L 168 144 L 168 144 L 156 144 L 156 144 L 156 132 L 156 132 Z M 168 132 L 180 132 L 180 132 L 180 144 L 180 144 L 168 144 L 168 144 L 168 132 L 168 132 Z M 180 132 L 186 132 A 6 6 0 0 1 192 138 L 192 144 L 192 144 L 180 144 L 180 144 L 180 132 L 180 132 Z M 216 132 L 228 132 L 228 132 L 228 144 L 228 144 L 216 144 L 216 144 L 216 132 L 216 132 Z M 240 132 L 252 132 L 252 132 L 252 138 A 6 6 0 0 1 246 144 L 246 144 A 6 6 0 0 1 240 138 L 240 132 L 240 132 Z M 6 144 L 12 144 L 12 144 L 12 156 L 12 156 L 6 156 A 6 6 0 0 1 0 150 L 0 150 A 6 6 0 0 1 6 144 Z M 12 144 L 24 144 L 24 144 L 24 156 L 24 156 L 12 156 L 12 156 L 12 144 L 12 144 Z M 24 144 L 36 144 L 36 144 L 36 156 L 36 156 L 24 156 L 24 156 L 24 144 L 24 144 Z M 78 144 L 84 144 L 84 144 L 84 156 L 84 156 L 78 156 A 6 6 0 0 1 72 150 L 72 150 A 6 6 0 0 1 78 144 Z M 84 144 L 96 144 L 96 144 L 96 156 L 96 156 L 84 156 L 84 156 L 84 144 L 84 144 Z M 138 144 L 144 144 L 144 144 L 144 156 L 144 156 L 138 156 A 6 6 0 0 1 132 150 L 132 150 A 6 6 0 0 1 138 144 Z M 144 144 L 156 144 L 156 144 L 156 156 L 156 156 L 144 156 L 144 156 L 144 144 L 144 144 Z M 156 144 L 168 144 L 168 144 L 168 156 L 168 156 L 156 156 L 156 156 L 156 144 L 156 144 Z M 180 144 L 192 144 L 192 144 L 192 156 L 192 156 L 186 156 A 6 6 0 0 1 180 150 L 180 144 L 180 144 Z M 192 144 L 204 144 L 204 144 L 204 156 L 204 156 L 192 156 L 192 156 L 192 144 L 192 144 Z M 204 144 L 216 144 L 216 144 L 216 156 L 216 156 L 204 156 L 204 156 L 204 144 L 204 144 Z M 216 144 L 228 144 L 228 144 L 228 156 L 228 156 L 216 156 L 216 156 L 216 144 L 216 144 Z M 258 144 L 258 144 A 6 6 0 0 1 264 150 L 264 156 L 264 156 L 252 156 L 252 156 L 252 150 A 6 6 0 0 1 258 144 Z M 282 144 L 288 144 L 288 144 L 288 156 L 288 156 L 282 156 A 6 6 0 0 1 276 150 L 276 150 A 6 6 0 0 1 282 144 Z M 288 144 L 294 144 A 6 6 0 0 1 300 150 L 300 156 L 300 156 L 288 156 L 288 156 L 288 144 L 288 144 Z M 12 156 L 24 156 L 24 156 L 24 168 L 24 168 L 18 168 A 6 6 0 0 1 12 162 L 12 156 L 12 156 Z M 24 156 L 36 156 L 36 156 L 36 162 A 6 6 0 0 1 30 168 L 24 168 L 24 168 L 24 156 L 24 156 Z M 66 156 L 66 156 A 6 6 0 0 1 72 162 L 72 162 A 6 6 0 0 1 66 168 L 66 168 A 6 6 0 0 1 60 162 L 60 162 A 6 6 0 0 1 66 156 Z M 84 156 L 96 156 L 96 156 L 96 168 L 96 168 L 84 168 L 84 168 L 84 156 L 84 156 Z M 96 156 L 108 156 L 108 156 L 108 168 L 108 168 L 96 168 L 96 168 L 96 156 L 96 156 Z M 108 156 L 120 156 L 120 156 L 120 168 L 120 168 L 108 168 L 108 168 L 108 156 L 108 156 Z M 120 156 L 126 156 A 6 6 0 0 1 132 162 L 132 162 A 6 6 0 0 1 126 168 L 120 168 L 120 168 L 120 156 L 120 156 Z M 144 156 L 156 156 L 156 156 L 156 168 L 156 168 L 150 168 A 6 6 0 0 1 144 162 L 144 156 L 144 156 Z M 156 156 L 168 156 L 168 156 L 168 168 L 168 168 L 156 168 L 156 168 L 156 156 L 156 156 Z M 204 156 L 216 156 L 216 156 L 216 168 L 216 168 L 210 168 A 6 6 0 0 1 204 162 L 204 156 L 204 156 Z M 216 156 L 228 156 L 228 156 L 228 168 L 228 168 L 216 168 L 216 168 L 216 156 L 216 156 Z M 228 156 L 234 156 A 6 6 0 0 1 240 162 L 240 168 L 240 168 L 228 168 L 228 168 L 228 156 L 228 156 Z M 252 156 L 264 156 L 264 156 L 264 168 L 264 168 L 258 168 A 6 6 0 0 1 252 162 L 252 156 L 252 156 Z M 264 156 L 270 156 A 6 6 0 0 1 276 162 L 276 168 L 276 168 L 264 168 L 264 168 L 264 156 L 264 156 Z M 288 156 L 300 156 L 300 156 L 300 168 L 300 168 L 288 168 L 288 168 L 288 156 L 288 156 Z M 6 168 L 6 168 A 6 6 0 0 1 12 174 L 12 174 A 6 6 0 0 1 6 180 L 6 180 A 6 6 0 0 1 0 174 L 0 174 A 6 6 0 0 1 6 168 Z M 42 168 L 42 168 A 6 6 0 0 1 48 174 L 48 180 L 48 180 L 36 180 L 36 180 L 36 174 A 6 6 0 0 1 42 168 Z M 78 168 L 84 168 L 84 168 L 84 180 L 84 180 L 78 180 A 6 6 0 0 1 72 174 L 72 174 A 6 6 0 0 1 78 168 Z M 84 168 L 96 168 L 96 168 L 96 180 L 96 180 L 84 180 L 84 180 L 84 168 L 84 168 Z M 138 168 L 138 168 A 6 6 0 0 1 144 174 L 144 180 L 144 180 L 132 180 L 132 180 L 132 174 A 6 6 0 0 1 138 168 Z M 156 168 L 168 168 L 168 168 L 168 180 L 168 180 L 156 180 L 156 180 L 156 168 L 156 168 Z M 168 168 L 174 168 A 6 6 0 0 1 180 174 L 180 180 L 180 180 L 168 180 L 168 180 L 168 168 L 168 168 Z M 216 168 L 228 168 L 228 168 L 228 180 L 228 180 L 222 180 A 6 6 0 0 1 216 174 L 216 168 L 216 168 Z M 228 168 L 240 168 L 240 168 L 240 180 L 240 180 L 228 180 L 228 180 L 228 168 L 228 168 Z M 240 168 L 246 168 A 6 6 0 0 1 252 174 L 252 180 L 252 180 L 240 180 L 240 180 L 240 168 L 240 168 Z M 264 168 L 276 168 L 276 168 L 276 174 A 6 6 0 0 1 270 180 L 270 180 A 6 6 0 0 1 264 174 L 264 168 L 264 168 Z M 288 168 L 300 168 L 300 168 L 300 174 A 6 6 0 0 1 294 180 L 294 180 A 6 6 0 0 1 288 174 L 288 168 L 288 168 Z M 18 180 L 18 180 A 6 6 0 0 1 24 186 L 24 192 L 24 192 L 12 192 L 12 192 L 12 186 A 6 6 0 0 1 18 180 Z M 36 180 L 48 180 L 48 180 L 48 186 A 6 6 0 0 1 42 192 L 42 192 A 6 6 0 0 1 36 186 L 36 180 L 36 180 Z M 66 180 L 66 180 A 6 6 0 0 1 72 186 L 72 192 L 72 192 L 60 192 L 60 192 L 60 186 A 6 6 0 0 1 66 180 Z M 84 180 L 96 180 L 96 180 L 96 192 L 96 192 L 90 192 A 6 6 0 0 1 84 186 L 84 180 L 84 180 Z M 96 180 L 102 180 A 6 6 0 0 1 108 186 L 108 192 L 108 192 L 96 192 L 96 192 L 96 180 L 96 180 Z M 126 180 L 132 180 L 132 180 L 132 192 L 132 192 L 120 192 L 120 192 L 120 186 A 6 6 0 0 1 126 180 Z M 132 180 L 144 180 L 144 180 L 144 192 L 144 192 L 132 192 L 132 192 L 132 180 L 132 180 Z M 156 180 L 168 180 L 168 180 L 168 192 L 168 192 L 162 192 A 6 6 0 0 1 156 186 L 156 180 L 156 180 Z M 168 180 L 180 180 L 180 180 L 180 186 A 6 6 0 0 1 174 192 L 168 192 L 168 192 L 168 180 L 168 180 Z M 240 180 L 252 180 L 252 180 L 252 192 L 252 192 L 240 192 L 240 192 L 240 180 L 240 180 Z M 282 180 L 282 180 A 6 6 0 0 1 288 186 L 288 186 A 6 6 0 0 1 282 192 L 282 192 A 6 6 0 0 1 276 186 L 276 186 A 6 6 0 0 1 282 180 Z M 6 192 L 12 192 L 12 192 L 12 204 L 12 204 L 6 204 A 6 6 0 0 1 0 198 L 0 198 A 6 6 0 0 1 6 192 Z M 12 192 L 24 192 L 24 192 L 24 204 L 24 204 L 12 204 L 12 204 L 12 192 L 12 192 Z M 24 192 L 30 192 A 6 6 0 0 1 36 198 L 36 198 A 6 6 0 0 1 30 204 L 24 204 L 24 204 L 24 192 L 24 192 Z M 54 192 L 60 192 L 60 192 L 60 204 L 60 204 L 54 204 A 6 6 0 0 1 48 198 L 48 198 A 6 6 0 0 1 54 192 Z M 60 192 L 72 192 L 72 192 L 72 204 L 72 204 L 60 204 L 60 204 L 60 192 L 60 192 Z M 72 192 L 78 192 A 6 6 0 0 1 84 198 L 84 198 A 6 6 0 0 1 78 204 L 72 204 L 72 204 L 72 192 L 72 192 Z M 96 192 L 108 192 L 108 192 L 108 204 L 108 204 L 96 204 L 96 204 L 96 192 L 96 192 Z M 120 192 L 132 192 L 132 192 L 132 204 L 132 204 L 126 204 A 6 6 0 0 1 120 198 L 120 192 L 120 192 Z M 132 192 L 144 192 L 144 192 L 144 204 L 144 204 L 132 204 L 132 204 L 132 192 L 132 192 Z M 144 192 L 150 192 A 6 6 0 0 1 156 198 L 156 204 L 156 204 L 144 204 L 144 204 L 144 192 L 144 192 Z M 198 192 L 204 192 L 204 192 L 204 204 L 204 204 L 192 204 L 192 204 L 192 198 A 6 6 0 0 1 198 192 Z M 204 192 L 216 192 L 216 192 L 216 204 L 216 204 L 204 204 L 204 204 L 204 192 L 204 192 Z M 216 192 L 228 192 L 228 192 L 228 204 L 228 204 L 216 204 L 216 204 L 216 192 L 216 192 Z M 228 192 L 240 192 L 240 192 L 240 204 L 240 204 L 228 204 L 228 204 L 228 192 L 228 192 Z M 240 192 L 252 192 L 252 192 L 252 204 L 252 204 L 240 204 L 240 204 L 240 192 L 240 192 Z M 252 192 L 264 192 L 264 192 L 264 204 L 264 204 L 252 204 L 252 204 L 252 192 L 252 192 Z M 264 192 L 270 192 A 6 6 0 0 1 276 198 L 276 198 A 6 6 0 0 1 270 204 L 264 204 L 264 204 L 264 192 L 264 192 Z M 96 204 L 108 204 L 108 204 L 108 216 L 108 216 L 96 216 L 96 216 L 96 204 L 96 204 Z M 108 204 L 114 204 A 6 6 0 0 1 120 210 L 120 216 L 120 216 L 108 216 L 108 216 L 108 204 L 108 204 Z M 132 204 L 144 204 L 144 204 L 144 216 L 144 216 L 138 216 A 6 6 0 0 1 132 210 L 132 204 L 132 204 Z M 144 204 L 156 204 L 156 204 L 156 216 L 156 216 L 144 216 L 144 216 L 144 204 L 144 204 Z M 156 204 L 162 204 A 6 6 0 0 1 168 210 L 168 216 L 168 216 L 156 216 L 156 216 L 156 204 L 156 204 Z M 192 204 L 204 204 L 204 204 L 204 216 L 204 216 L 192 216 L 192 216 L 192 204 L 192 204 Z M 240 204 L 252 204 L 252 204 L 252 216 L 252 216 L 240 216 L 240 216 L 240 204 L 240 204 Z M 252 204 L 264 204 L 264 204 L 264 216 L 264 216 L 252 216 L 252 216 L 252 204 L 252 204 Z M 294 204 L 294 204 A 6 6 0 0 1 300 210 L 300 216 L 300 216 L 288 216 L 288 216 L 288 210 A 6 6 0 0 1 294 204 Z M 96 216 L 108 216 L 108 216 L 108 228 L 108 228 L 102 228 A 6 6 0 0 1 96 222 L 96 216 L 96 216 Z M 108 216 L 120 216 L 120 216 L 120 228 L 120 228 L 108 228 L 108 228 L 108 216 L 108 216 Z M 120 216 L 126 216 A 6 6 0 0 1 132 222 L 132 222 A 6 6 0 0 1 126 228 L 120 228 L 120 228 L 120 216 L 120 216 Z M 144 216 L 156 216 L 156 216 L 156 228 L 156 228 L 144 228 L 144 228 L 144 216 L 144 216 Z M 156 216 L 168 216 L 168 216 L 168 228 L 168 228 L 156 228 L 156 228 L 156 216 L 156 216 Z M 168 216 L 180 216 L 180 216 L 180 228 L 180 228 L 168 228 L 168 228 L 168 216 L 168 216 Z M 180 216 L 192 216 L 192 216 L 192 228 L 192 228 L 180 228 L 180 228 L 180 216 L 180 216 Z M 192 216 L 204 216 L 204 216 L 204 228 L 204 228 L 192 228 L 192 228 L 192 216 L 192 216 Z M 222 216 L 222 216 A 6 6 0 0 1 228 222 L 228 222 A 6 6 0 0 1 222 228 L 222 228 A 6 6 0 0 1 216 222 L 216 222 A 6 6 0 0 1 222 216 Z M 240 216 L 252 216 L 252 216 L 252 228 L 252 228 L 240 228 L 240 228 L 240 216 L 240 216 Z M 252 216 L 264 216 L 264 216 L 264 228 L 264 228 L 252 228 L 252 228 L 252 216 L 252 216 Z M 282 216 L 288 216 L 288 216 L 288 228 L 288 228 L 282 228 A 6 6 0 0 1 276 222 L 276 222 A 6 6 0 0 1 282 216 Z M 288 216 L 300 216 L 300 216 L 300 222 A 6 6 0 0 1 294 228 L 288 228 L 288 228 L 288 216 L 288 216 Z M 138 228 L 144 228 L 144 228 L 144 240 L 144 240 L 132 240 L 132 240 L 132 234 A 6 6 0 0 1 138 228 Z M 144 228 L 156 228 L 156 228 L 156 234 A 6 6 0 0 1 150 240 L 144 240 L 144 240 L 144 228 L 144 228 Z M 192 228 L 204 228 L 204 228 L 204 240 L 204 240 L 192 240 L 192 240 L 192 228 L 192 228 Z M 240 228 L 252 228 L 252 228 L 252 240 L 252 240 L 240 240 L 240 240 L 240 228 L 240 228 Z M 252 228 L 264 228 L 264 228 L 264 240 L 264 240 L 252 240 L 252 240 L 252 228 L 252 228 Z M 264 228 L 270 228 A 6 6 0 0 1 276 234 L 276 234 A 6 6 0 0 1 270 240 L 264 240 L 264 240 L 264 228 L 264 228 Z M 126 240 L 132 240 L 132 240 L 132 252 L 132 252 L 120 252 L 120 252 L 120 246 A 6 6 0 0 1 126 240 Z M 132 240 L 144 240 L 144 240 L 144 246 A 6 6 0 0 1 138 252 L 132 252 L 132 252 L 132 240 L 132 240 Z M 162 240 L 168 240 L 168 240 L 168 252 L 168 252 L 156 252 L 156 252 L 156 246 A 6 6 0 0 1 162 240 Z M 168 240 L 174 240 A 6 6 0 0 1 180 246 L 180 246 A 6 6 0 0 1 174 252 L 168 252 L 168 252 L 168 240 L 168 240 Z M 192 240 L 204 240 L 204 240 L 204 252 L 204 252 L 198 252 A 6 6 0 0 1 192 246 L 192 240 L 192 240 Z M 204 240 L 216 240 L 216 240 L 216 252 L 216 252 L 204 252 L 204 252 L 204 240 L 204 240 Z M 216 240 L 228 240 L 228 240 L 228 252 L 228 252 L 216 252 L 216 252 L 216 240 L 216 240 Z M 228 240 L 240 240 L 240 240 L 240 252 L 240 252 L 228 252 L 228 252 L 228 240 L 228 240 Z M 240 240 L 252 240 L 252 240 L 252 252 L 252 252 L 240 252 L 240 252 L 240 240 L 240 240 Z M 252 240 L 264 240 L 264 240 L 264 252 L 264 252 L 252 252 L 252 252 L 252 240 L 252 240 Z M 102 252 L 102 252 A 6 6 0 0 1 108 258 L 108 258 A 6 6 0 0 1 102 264 L 102 264 A 6 6 0 0 1 96 258 L 96 258 A 6 6 0 0 1 102 252 Z M 120 252 L 132 252 L 132 252 L 132 264 L 132 264 L 120 264 L 120 264 L 120 252 L 120 252 Z M 150 252 L 156 252 L 156 252 L 156 264 L 156 264 L 150 264 A 6 6 0 0 1 144 258 L 144 258 A 6 6 0 0 1 150 252 Z M 156 252 L 168 252 L 168 252 L 168 258 A 6 6 0 0 1 162 264 L 156 264 L 156 264 L 156 252 L 156 252 Z M 228 252 L 240 252 L 240 252 L 240 264 L 240 264 L 228 264 L 228 264 L 228 252 L 228 252 Z M 240 252 L 252 252 L 252 252 L 252 264 L 252 264 L 240 264 L 240 264 L 240 252 L 240 252 Z M 252 252 L 264 252 L 264 252 L 264 264 L 264 264 L 252 264 L 252 264 L 252 252 L 252 252 Z M 264 252 L 270 252 A 6 6 0 0 1 276 258 L 276 264 L 276 264 L 264 264 L 264 264 L 264 252 L 264 252 Z M 120 264 L 132 264 L 132 264 L 132 276 L 132 276 L 120 276 L 120 276 L 120 264 L 120 264 Z M 186 264 L 192 264 L 192 264 L 192 276 L 192 276 L 180 276 L 180 276 L 180 270 A 6 6 0 0 1 186 264 Z M 192 264 L 198 264 A 6 6 0 0 1 204 270 L 204 276 L 204 276 L 192 276 L 192 276 L 192 264 L 192 264 Z M 228 264 L 240 264 L 240 264 L 240 276 L 240 276 L 234 276 A 6 6 0 0 1 228 270 L 228 264 L 228 264 Z M 240 264 L 252 264 L 252 264 L 252 270 A 6 6 0 0 1 246 276 L 240 276 L 240 276 L 240 264 L 240 264 Z M 264 264 L 276 264 L 276 264 L 276 270 A 6 6 0 0 1 270 276 L 270 276 A 6 6 0 0 1 264 270 L 264 264 L 264 264 Z M 294 264 L 294 264 A 6 6 0 0 1 300 270 L 300 270 A 6 6 0 0 1 294 276 L 294 276 A 6 6 0 0 1 288 270 L 288 270 A 6 6 0 0 1 294 264 Z M 102 276 L 102 276 A 6 6 0 0 1 108 282 L 108 288 L 108 288 L 96 288 L 96 288 L 96 282 A 6 6 0 0 1 102 276 Z M 120 276 L 132 276 L 132 276 L 132 288 L 132 288 L 126 288 A 6 6 0 0 1 120 282 L 120 276 L 120 276 Z M 132 276 L 144 276 L 144 276 L 144 288 L 144 288 L 132 288 L 132 288 L 132 276 L 132 276 Z M 144 276 L 156 276 L 156 276 L 156 288 L 156 288 L 144 288 L 144 288 L 144 276 L 144 276 Z M 156 276 L 162 276 A 6 6 0 0 1 168 282 L 168 288 L 168 288 L 156 288 L 156 288 L 156 276 L 156 276 Z M 180 276 L 192 276 L 192 276 L 192 288 L 192 288 L 180 288 L 180 288 L 180 276 L 180 276 Z M 192 276 L 204 276 L 204 276 L 204 288 L 204 288 L 192 288 L 192 288 L 192 276 L 192 276 Z M 258 276 L 258 276 A 6 6 0 0 1 264 282 L 264 282 A 6 6 0 0 1 258 288 L 258 288 A 6 6 0 0 1 252 282 L 252 282 A 6 6 0 0 1 258 276 Z M 96 288 L 108 288 L 108 288 L 108 294 A 6 6 0 0 1 102 300 L 102 300 A 6 6 0 0 1 96 294 L 96 288 L 96 288 Z M 132 288 L 144 288 L 144 288 L 144 300 L 144 300 L 138 300 A 6 6 0 0 1 132 294 L 132 288 L 132 288 Z M 144 288 L 156 288 L 156 288 L 156 300 L 156 300 L 144 300 L 144 300 L 144 288 L 144 288 Z M 156 288 L 168 288 L 168 288 L 168 300 L 168 300 L 156 300 L 156 300 L 156 288 L 156 288 Z M 168 288 L 180 288 L 180 288 L 180 300 L 180 300 L 168 300 L 168 300 L 168 288 L 168 288 Z M 180 288 L 192 288 L 192 288 L 192 300 L 192 300 L 180 300 L 180 300 L 180 288 L 180 288 Z M 192 288 L 204 288 L 204 288 L 204 300 L 204 300 L 192 300 L 192 300 L 192 288 L 192 288 Z M 204 288 L 216 288 L 216 288 L 216 300 L 216 300 L 204 300 L 204 300 L 204 288 L 204 288 Z M 216 288 L 228 288 L 228 288 L 228 300 L 228 300 L 216 300 L 216 300 L 216 288 L 216 288 Z M 228 288 L 234 288 A 6 6 0 0 1 240 294 L 240 294 A 6 6 0 0 1 234 300 L 228 300 L 228 300 L 228 288 L 228 288 Z M 282 288 L 288 288 L 288 288 L 288 300 L 288 300 L 282 300 A 6 6 0 0 1 276 294 L 276 294 A 6 6 0 0 1 282 288 Z M 288 288 L 294 288 A 6 6 0 0 1 300 294 L 300 294 A 6 6 0 0 1 294 300 L 288 300 L 288 300 L 288 288 L 288 288 Z M 12 12 L 18 12 A 6 6 0 0 0 12 18 Z M 72 12 L 66 12 A 6 6 0 0 1 72 18 Z M 108 24 L 114 24 A 6 6 0 0 1 108 18 Z M 156 12 L 150 12 A 6 6 0 0 1 156 18 Z M 228 12 L 234 12 A 6 6 0 0 0 228 18 Z M 288 12 L 282 12 A 6 6 0 0 1 288 18 Z M 144 36 L 138 36 A 6 6 0 0 0 144 30 Z M 132 36 L 138 36 A 6 6 0 0 1 132 30 Z M 108 36 L 102 36 A 6 6 0 0 1 108 42 Z M 168 48 L 162 48 A 6 6 0 0 0 168 42 Z M 180 48 L 186 48 A 6 6 0 0 1 180 42 Z M 108 60 L 114 60 A 6 6 0 0 1 108 54 Z M 132 48 L 126 48 A 6 6 0 0 1 132 54 Z M 144 48 L 150 48 A 6 6 0 0 0 144 54 Z M 156 60 L 150 60 A 6 6 0 0 0 156 54 Z M 12 72 L 18 72 A 6 6 0 0 1 12 66 Z M 72 72 L 66 72 A 6 6 0 0 0 72 66 Z M 168 60 L 174 60 A 6 6 0 0 0 168 66 Z M 180 60 L 174 60 A 6 6 0 0 1 180 66 Z M 192 60 L 198 60 A 6 6 0 0 0 192 66 Z M 228 72 L 234 72 A 6 6 0 0 1 228 66 Z M 288 72 L 282 72 A 6 6 0 0 0 288 66 Z M 108 72 L 114 72 A 6 6 0 0 0 108 78 Z M 108 84 L 114 84 A 6 6 0 0 1 108 78 Z M 144 84 L 138 84 A 6 6 0 0 0 144 78 Z M 156 72 L 162 72 A 6 6 0 0 0 156 78 Z M 132 96 L 126 96 A 6 6 0 0 0 132 90 Z M 156 96 L 162 96 A 6 6 0 0 1 156 90 Z M 24 108 L 30 108 A 6 6 0 0 1 24 102 Z M 96 108 L 102 108 A 6 6 0 0 1 96 102 Z M 12 108 L 6 108 A 6 6 0 0 1 12 114 Z M 84 108 L 78 108 A 6 6 0 0 1 84 114 Z M 84 120 L 78 120 A 6 6 0 0 0 84 114 Z M 120 120 L 114 120 A 6 6 0 0 0 120 114 Z M 108 120 L 114 120 A 6 6 0 0 1 108 114 Z M 132 108 L 138 108 A 6 6 0 0 0 132 114 Z M 144 108 L 138 108 A 6 6 0 0 1 144 114 Z M 156 108 L 162 108 A 6 6 0 0 0 156 114 Z M 228 108 L 234 108 A 6 6 0 0 0 228 114 Z M 228 120 L 234 120 A 6 6 0 0 1 228 114 Z M 288 120 L 282 120 A 6 6 0 0 0 288 114 Z M 36 132 L 42 132 A 6 6 0 0 1 36 126 Z M 12 144 L 6 144 A 6 6 0 0 0 12 138 Z M 84 132 L 78 132 A 6 6 0 0 1 84 138 Z M 84 144 L 78 144 A 6 6 0 0 0 84 138 Z M 108 132 L 114 132 A 6 6 0 0 0 108 138 Z M 144 144 L 138 144 A 6 6 0 0 0 144 138 Z M 192 144 L 198 144 A 6 6 0 0 1 192 138 Z M 216 144 L 210 144 A 6 6 0 0 0 216 138 Z M 228 132 L 234 132 A 6 6 0 0 0 228 138 Z M 240 132 L 234 132 A 6 6 0 0 1 240 138 Z M 36 144 L 42 144 A 6 6 0 0 0 36 150 Z M 96 144 L 102 144 A 6 6 0 0 0 96 150 Z M 96 156 L 102 156 A 6 6 0 0 1 96 150 Z M 168 144 L 174 144 A 6 6 0 0 0 168 150 Z M 180 144 L 174 144 A 6 6 0 0 1 180 150 Z M 228 156 L 234 156 A 6 6 0 0 1 228 150 Z M 264 156 L 270 156 A 6 6 0 0 1 264 150 Z M 12 156 L 6 156 A 6 6 0 0 1 12 162 Z M 84 156 L 78 156 A 6 6 0 0 1 84 162 Z M 84 168 L 78 168 A 6 6 0 0 0 84 162 Z M 144 156 L 138 156 A 6 6 0 0 1 144 162 Z M 168 168 L 174 168 A 6 6 0 0 1 168 162 Z M 204 156 L 198 156 A 6 6 0 0 1 204 162 Z M 240 168 L 246 168 A 6 6 0 0 1 240 162 Z M 288 156 L 282 156 A 6 6 0 0 1 288 162 Z M 96 168 L 102 168 A 6 6 0 0 0 96 174 Z M 96 180 L 102 180 A 6 6 0 0 1 96 174 Z M 132 180 L 126 180 A 6 6 0 0 0 132 174 Z M 156 168 L 150 168 A 6 6 0 0 1 156 174 Z M 216 168 L 210 168 A 6 6 0 0 1 216 174 Z M 264 168 L 258 168 A 6 6 0 0 1 264 174 Z M 12 192 L 6 192 A 6 6 0 0 0 12 186 Z M 24 192 L 30 192 A 6 6 0 0 1 24 186 Z M 60 192 L 54 192 A 6 6 0 0 0 60 186 Z M 84 180 L 78 180 A 6 6 0 0 1 84 186 Z M 72 192 L 78 192 A 6 6 0 0 1 72 186 Z M 144 192 L 150 192 A 6 6 0 0 1 144 186 Z M 240 180 L 234 180 A 6 6 0 0 1 240 186 Z M 240 192 L 234 192 A 6 6 0 0 0 240 186 Z M 252 192 L 258 192 A 6 6 0 0 1 252 186 Z M 96 192 L 90 192 A 6 6 0 0 1 96 198 Z M 108 204 L 114 204 A 6 6 0 0 1 108 198 Z M 156 204 L 162 204 A 6 6 0 0 1 156 198 Z M 132 204 L 126 204 A 6 6 0 0 1 132 210 Z M 120 216 L 126 216 A 6 6 0 0 1 120 210 Z M 168 216 L 174 216 A 6 6 0 0 1 168 210 Z M 192 216 L 186 216 A 6 6 0 0 0 192 210 Z M 204 204 L 210 204 A 6 6 0 0 0 204 210 Z M 240 204 L 234 204 A 6 6 0 0 1 240 210 Z M 264 204 L 270 204 A 6 6 0 0 0 264 210 Z M 288 216 L 282 216 A 6 6 0 0 0 288 210 Z M 144 216 L 138 216 A 6 6 0 0 1 144 222 Z M 144 228 L 138 228 A 6 6 0 0 0 144 222 Z M 264 228 L 270 228 A 6 6 0 0 1 264 222 Z M 12 228 L 18 228 A 6 6 0 0 0 12 234 Z M 72 228 L 66 228 A 6 6 0 0 1 72 234 Z M 132 240 L 126 240 A 6 6 0 0 0 132 234 Z M 156 228 L 162 228 A 6 6 0 0 0 156 234 Z M 192 228 L 186 228 A 6 6 0 0 1 192 234 Z M 204 240 L 210 240 A 6 6 0 0 1 204 234 Z M 240 240 L 234 240 A 6 6 0 0 0 240 234 Z M 144 240 L 150 240 A 6 6 0 0 0 144 246 Z M 156 252 L 150 252 A 6 6 0 0 0 156 246 Z M 264 240 L 270 240 A 6 6 0 0 0 264 246 Z M 264 252 L 270 252 A 6 6 0 0 1 264 246 Z M 132 252 L 138 252 A 6 6 0 0 0 132 258 Z M 168 252 L 174 252 A 6 6 0 0 0 168 258 Z M 228 252 L 222 252 A 6 6 0 0 1 228 258 Z M 132 276 L 138 276 A 6 6 0 0 1 132 270 Z M 252 264 L 258 264 A 6 6 0 0 0 252 270 Z M 264 264 L 258 264 A 6 6 0 0 1 264 270 Z M 12 288 L 18 288 A 6 6 0 0 1 12 282 Z M 72 288 L 66 288 A 6 6 0 0 0 72 282 Z M 180 288 L 174 288 A 6 6 0 0 0 180 282 Z M 168 288 L 174 288 A 6 6 0 0 1 168 282 Z M 204 288 L 210 288 A 6 6 0 0 1 204 282 Z M 132 288 L 126 288 A 6 6 0 0 1 132 294 Z"/><path fill="#1a1a1a" fill-rule="evenodd" d="M 30 0 L 54 0 A 30 30 0 0 1 84 30 L 84 54 A 30 30 0 0 1 54 84 L 30 84 A 30 30 0 0 1 0 54 L 0 30 A 30 30 0 0 1 30 0 Z M 30 12 L 54 12 A 18 18 0 0 1 72 30 L 72 54 A 18 18 0 0 1 54 72 L 30 72 A 18 18 0 0 1 12 54 L 12 30 A 18 18 0 0 1 30 12 Z"/><path fill="#1a1a1a" d="M 30 24 L 54 24 A 6 6 0 0 1 60 30 L 60 54 A 6 6 0 0 1 54 60 L 30 60 A 6 6 0 0 1 24 54 L 24 30 A 6 6 0 0 1 30 24 Z"/><path fill="#1a1a1a" fill-rule="evenodd" d="M 246 0 L 270 0 A 30 30 0 0 1 300 30 L 300 54 A 30 30 0 0 1 270 84 L 246 84 A 30 30 0 0 1 216 54 L 216 30 A 30 30 0 0 1 246 0 Z M 246 12 L 270 12 A 18 18 0 0 1 288 30 L 288 54 A 18 18 0 0 1 270 72 L 246 72 A 18 18 0 0 1 228 54 L 228 30 A 18 18 0 0 1 246 12 Z"/><path fill="#1a1a1a" d="M 246 24 L 270 24 A 6 6 0 0 1 276 30 L 276 54 A 6 6 0 0 1 270 60 L 246 60 A 6 6 0 0 1 240 54 L 240 30 A 6 6 0 0 1 246 24 Z"/><path fill="#1a1a1a" fill-rule="evenodd" d="M 30 216 L 54 216 A 30 30 0 0 1 84 246 L 84 270 A 30 30 0 0 1 54 300 L 30 300 A 30 30 0 0 1 0 270 L 0 246 A 30 30 0 0 1 30 216 Z M 30 228 L 54 228 A 18 18 0 0 1 72 246 L 72 270 A 18 18 0 0 1 54 288 L 30 288 A 18 18 0 0 1 12 270 L 12 246 A 18 18 0 0 1 30 228 Z"/><path fill="#1a1a1a" d="M 30 240 L 54 240 A 6 6 0 0 1 60 246 L 60 270 A 6 6 0 0 1 54 276 L 30 276 A 6 6 0 0 1 24 270 L 24 246 A 6 6 0 0 1 30 240 Z"/></svg>